<?xml version="1.0" encoding="UTF-8" standalone="no"?>
<!-- Created with Inkscape (http://www.inkscape.org/) -->
<svg
   xmlns:dc="http://purl.org/dc/elements/1.1/"
   xmlns:cc="http://web.resource.org/cc/"
   xmlns:rdf="http://www.w3.org/1999/02/22-rdf-syntax-ns#"
   xmlns:svg="http://www.w3.org/2000/svg"
   xmlns="http://www.w3.org/2000/svg"
   xmlns:sodipodi="http://sodipodi.sourceforge.net/DTD/sodipodi-0.dtd"
   xmlns:inkscape="http://www.inkscape.org/namespaces/inkscape"
   id="svg2241"
   sodipodi:version="0.32"
   inkscape:version="0.45.1"
   width="975"
   height="323"
   version="1.0"
   sodipodi:docbase="C:\Users\Chris\Desktop\SVGs"
   sodipodi:docname="Energiser logo.svg"
   inkscape:output_extension="org.inkscape.output.svg.inkscape">
  <metadata
     id="metadata2246">
    <rdf:RDF>
      <cc:Work
         rdf:about="">
        <dc:format>image/svg+xml</dc:format>
        <dc:type
           rdf:resource="http://purl.org/dc/dcmitype/StillImage" />
      </cc:Work>
    </rdf:RDF>
  </metadata>
  <defs
     id="defs2244" />
  <sodipodi:namedview
     inkscape:window-height="974"
     inkscape:window-width="1280"
     inkscape:pageshadow="2"
     inkscape:pageopacity="0.0"
     guidetolerance="10.0"
     gridtolerance="10.0"
     objecttolerance="10.0"
     borderopacity="1.0"
     bordercolor="#666666"
     pagecolor="#ffffff"
     id="base"
     inkscape:zoom="0.6974359"
     inkscape:cx="630.51197"
     inkscape:cy="83.767634"
     inkscape:window-x="-8"
     inkscape:window-y="-8"
     inkscape:current-layer="svg2241" />
  <path
     style="fill:#000000"
     d="M 11,314.63318 C 11,314.43143 20.225,294.7965 31.5,271 C 42.775,247.2035 52,227.34357 52,226.86682 C 52,226.39007 40.525,226 26.5,226 C 12.475,226 1.0054236,225.6625 1.0120526,225.25 C 1.0186815,224.8375 23.200371,177.7 50.304696,120.5 L 99.585287,16.5 L 125.14273,16.233421 L 150.70017,15.966842 L 154.44656,7.9834212 L 158.19295,-3.5527137e-014 L 214.03141,-2.5340841e-014 L 269.86986,-1.5154544e-014 L 266.43493,7.4344597 C 264.54572,11.523412 263,15.123412 263,15.43446 C 263,15.745507 344.00585,16 443.013,16 L 623.02599,16 L 625.21226,11.5 L 627.39853,7 L 655.21959,7 L 683.04065,7 L 681.02032,10.960162 C 679.90915,13.138251 679,15.161771 679,15.456873 C 679,15.751975 745.55766,16.107402 826.90591,16.246711 L 974.81182,16.5 L 930.97591,120 C 906.86616,176.925 886.76298,224.10997 886.30218,224.85548 C 885.59857,225.99381 881.46216,225.95608 860.48218,224.61997 C 782.91157,219.67989 745.92605,218.57548 657.5,218.55875 C 572.35393,218.54265 522.34929,219.91039 514,222.4838 C 501.60079,226.30547 478.2041,227.76923 469.69667,225.25554 C 465.41617,223.99077 445.52996,225.21882 400.5,229.52868 C 253.04128,243.6421 128.93689,270.07217 27.675368,308.92784 C 11.709684,315.05412 11,315.29694 11,314.63318 z "
     id="path2288" />
  <path
     style="fill:#ff0000;fill-opacity:1"
     d="M 31.667632,299.55692 C 34.974479,298.21323 47.764563,293.69039 60.09004,289.50616 C 160.40622,255.45102 276.92335,233.06844 419.17162,220.52771 C 434.94101,219.13747 449.04351,218 450.51051,218 L 453.17779,218 L 450.5335,214.85744 C 446.86628,210.4992 443.37241,203.28217 442.55427,198.37531 C 441.67987,193.131 443.44683,183.30783 446.51079,176.37968 L 448.88994,171 L 444.12898,171 L 439.36803,171 L 437.0884,176.5 L 434.80878,182 L 406.2974,182 C 381.35085,182 377.86192,181.81245 378.39301,180.5 C 378.72686,179.675 379.26392,178.34904 379.58649,177.55342 C 379.96356,176.62337 377.83599,177.28265 373.62804,179.39979 C 363.92753,184.2804 353.00407,186.38173 337,186.44589 C 321.844,186.50664 315.81756,185.18843 307.71527,180.04023 C 303.65976,177.46335 301.94912,177 296.49095,177 C 290.34726,177 289.98007,177.13785 288.5,180 L 286.94864,183 L 255.17883,183 C 225.37447,183 221.46308,183.21933 191.95451,186.54534 C 142.36512,192.13472 74.612515,202.23265 72.288738,204.38046 C 71.622544,204.99621 64.116368,220.125 55.608348,238 C 47.100328,255.875 37.809534,275.225 34.962138,281 C 29.279371,292.52561 24.957464,302 25.382621,302 C 25.53253,302 28.360785,300.90062 31.667632,299.55692 z "
     id="path2286" />
  <path
     style="fill:#ff0000"
     d="M 885.89667,207.05144 C 888.11842,201.30473 889.82131,196.48797 889.68086,196.34753 C 888.92134,195.58801 831.28088,189.25476 787,185.06547 C 768.729,183.33689 765.84761,183.28042 760.5,184.54604 C 751.2205,186.74223 734.62978,187.45848 726.16107,186.0285 C 721.88851,185.30707 716.03901,183.37876 712.16107,181.41335 C 703.70708,177.12873 698.00386,176.81897 695.58344,180.51299 L 693.93687,183.02599 L 623.79095,182.98644 L 553.64503,182.9469 L 550.02375,189.82877 C 546.20556,197.08482 537.29851,208.93063 533.65742,211.59494 C 531.66329,213.05411 532.44611,213.13017 544,212.59979 C 573.44301,211.24824 706.79205,210.77257 743.5,211.88816 C 784.55881,213.13598 833.75895,215.40583 862.5,217.37823 C 872.4,218.05763 880.80535,218.36297 881.17856,218.05675 C 881.55177,217.75054 883.67492,212.79815 885.89667,207.05144 z "
     id="path2284" />
  <path
     style="fill:#ffffff"
     d="M 505.76027,215.49309 C 520.26225,212.07701 531.55277,203.22598 539.69726,188.88871 C 543.45955,182.2657 605,51.900377 605,50.553465 C 605,50.249059 597.63061,50 588.62357,50 L 572.24714,50 L 569.87357,55.424125 L 567.5,60.848251 L 565.3852,56.102222 C 562.59936,49.850256 558.78631,48 548.68797,48 C 531.18323,48 517.61611,56.353649 505.0965,74.840453 C 499.70648,82.799502 481.83327,120.53576 477.82723,132.4149 C 471.69115,150.61026 473.25262,162.9437 482.20685,167.00761 C 490.5486,170.79355 504.8761,168.64007 515.28473,162.03587 C 517.91633,160.36614 520.24763,159 520.46539,159 C 521.30361,159 509.68078,182.67259 507.2898,185.83514 C 505.903,187.66946 503.35796,190.03028 501.63417,191.0814 C 498.087,193.24436 490.07303,193.67303 488.2,191.8 C 486.75107,190.35107 486.63551,185.08887 487.97525,181.5651 L 488.9505,179 L 472.42422,179 L 455.89795,179 L 454.35742,182.687 C 450.89919,190.9637 451.63367,200.73125 456.20415,207.24614 C 458.82075,210.9759 466.27785,215.1847 472.97225,216.71008 C 479.68797,218.24031 496.79293,217.60543 505.76027,215.49309 z "
     id="path2282" />
  <path
     style="fill:#000000"
     d="M 513.25,141.99037 C 508.71474,140.12401 510.02195,135.8741 525.08908,103.5 C 531.92913,88.803075 534.3974,84.536603 538.5398,80.25 C 542.79763,75.843954 544.18724,75 547.18415,75 C 552.36627,75 553.58764,76.942295 552.19619,82.970413 C 550.89545,88.605495 533.7074,125.66416 528.97161,133.04425 C 524.06163,140.69579 518.20392,144.02902 513.25,141.99037 z "
     id="path2280" />
  <path
     style="fill:#ffffff"
     d="M 354.28704,175.54204 C 370.15887,172.71258 382.15219,164.27245 391.86875,149.09445 C 396.39492,142.02423 402,131.7553 402,130.53324 C 402,130.23996 394.20835,130 384.68521,130 L 367.37042,130 L 365.61698,133.75 C 361.27779,143.03001 357.52642,148.05085 353.46177,150.01851 C 345.88869,153.68457 341,151.92323 341,145.52867 C 341,143.5761 343.33546,137.20477 346.64975,130.11566 L 352.2995,118.03111 L 379.82365,117.76556 L 407.34779,117.5 L 413.70277,103.5 C 421.24256,86.889875 423,81.397504 423,74.444225 C 423,64.541917 418.1403,56.172032 410,52.054271 C 404.73865,49.392821 401.35091,48.800146 391.82451,48.874519 C 369.12996,49.051697 351.4386,57.717351 339.43799,74.534691 C 332.31661,84.51442 309.30969,132.8742 306.43787,143.89985 C 304.74233,150.40944 304.56619,159.72162 306.06362,163.6849 C 308.23177,169.42338 314.29995,174.16179 321.7175,175.90842 C 327.56916,177.28633 345.64295,177.08301 354.28704,175.54204 z "
     id="path2278" />
  <path
     style="fill:#000000"
     d="M 367.39313,86.25 C 372.02559,77.065271 375.6243,72.835924 380.3151,71.063618 C 384.48891,69.486642 386.75708,69.757085 389.11257,72.112574 C 391.78206,74.782058 391.34427,77.976006 386.96704,87.765477 L 383.73223,95 L 373.35608,95 L 362.97993,95 L 367.39313,86.25 z "
     id="path2276" />
  <path
     style="fill:#ffffff"
     d="M 756.28704,175.54204 C 772.13786,172.71633 783.32165,164.89135 793.47785,149.5207 C 798.24255,142.30968 804,131.92024 804,130.53324 C 804,130.23996 796.2375,130.00193 786.75,130.00429 L 769.5,130.00858 L 765.6683,137.47243 C 763.56087,141.57754 760.30799,146.27842 758.43969,147.91881 C 754.51495,151.36478 748.93737,152.74813 745.42347,151.14709 C 741.27846,149.25849 742.11409,143.75804 748.6425,129.95827 L 754.285,118.03114 L 781.79748,117.76557 L 809.30995,117.5 L 816.08273,102.5 C 825.01589,82.71533 826.61983,75.138542 823.83944,65.858443 C 822.32752,60.812102 816.85265,54.488007 811.64255,51.769651 C 806.50912,49.091297 790.58082,48.171117 780.31059,49.9596 C 761.83939,53.176221 746.30864,64.565086 736.21466,82.295629 C 731.14104,91.20767 711.11866,134.83755 709.11131,141.35534 C 706.82238,148.78741 706.33772,159.11693 708.06362,163.6849 C 710.23177,169.42338 716.29995,174.16179 723.7175,175.90842 C 729.56916,177.28633 747.64295,177.08301 756.28704,175.54204 z "
     id="path2274" />
  <path
     style="fill:#000000"
     d="M 768.31677,87.906238 C 774.85394,73.193424 785.09305,66.093049 791.10417,72.104167 C 793.69605,74.696046 793.2819,77.518557 788.80845,87.75 L 785.63856,95 L 775.40172,95 L 765.16488,95 L 768.31677,87.906238 z "
     id="path2272" />
  <path
     style="fill:#ffffff"
     d="M 877.98807,172.62659 C 888.53667,165.64586 888.53224,150.18097 877.98007,144.68865 C 870.26193,140.67143 858.15749,144.85065 854.01975,152.96128 C 849.78404,161.26396 851.85694,169.41732 859.4113,174.16793 C 863.917,177.00138 872.44677,176.29365 877.98807,172.62659 z "
     id="path2270" />
  <path
     style="fill:#000000"
     d="M 861.77514,170.4412 C 858.22805,168.51626 857,166.08051 857,160.97003 C 857,153.01924 862.4627,147.5 870.33203,147.5 C 874.526,147.5 875.54937,147.93124 878.08203,150.76578 C 881.47737,154.56582 881.91723,159.26483 879.3784,164.61501 C 877.076,169.46697 876.32739,169.56292 874.14897,165.28532 L 872.22125,161.5 L 874.61062,159.70332 C 877.61686,157.44278 877.87437,152.53832 875.06574,151.03518 C 874.0019,150.46583 870.90375,150 868.18096,150 L 863.23045,150 L 862.58599,155.75 C 862.23153,158.9125 861.69013,163.1875 861.38287,165.25 C 860.89731,168.5093 861.08341,169 862.80511,169 C 864.96243,169 866,167.18726 866,163.41821 C 866,159.72156 867.97904,160.53706 869.71156,164.94763 C 870.71797,167.50968 872.00594,169.02648 873.38112,169.26911 C 875.31144,169.60969 875.24949,169.74783 872.6849,170.82148 C 868.95158,172.38441 865.1091,172.25047 861.77514,170.4412 z "
     id="path2268" />
  <path
     style="fill:#000000"
     d="M 867,156.06642 C 867,154.42611 867.63374,154 870.07332,154 C 872.46006,154 873.07251,154.39095 872.81477,155.75 C 872.61461,156.80548 871.3949,157.62558 869.74145,157.81642 C 867.53521,158.07107 867,157.72942 867,156.06642 z "
     id="path2266" />
  <path
     style="fill:#ffffff"
     d="M 186.65382,156.67236 C 190.69422,147.96716 194,140.66226 194,140.43924 C 194,140.21623 182.59277,139.91367 168.65059,139.76688 L 143.30118,139.5 L 151.33494,122.26707 L 159.36871,105.03413 L 183.79954,104.76707 L 208.23036,104.5 L 215.61518,88.622195 C 219.67683,79.889402 223,72.584902 223,72.389973 C 223,72.195045 212.25553,71.915057 199.12341,71.767779 L 175.24681,71.5 L 181.96485,57 L 188.68289,42.5 L 214.40922,42.23298 L 240.13555,41.96596 L 247.56778,26.390899 C 251.6555,17.824615 255,10.402734 255,9.897831 C 255,9.3500975 236.58737,9.0847296 209.35011,9.2399124 L 163.70022,9.5 L 126.86875,88 C 106.61144,131.175 89.359031,167.96699 88.53006,169.75998 L 87.022839,173.01996 L 133.16524,172.75998 L 179.30765,172.5 L 186.65382,156.67236 z "
     id="path2264" />
  <path
     style="fill:#ffffff"
     d="M 245.96445,130 C 256.90737,106.625 267.12952,85.577395 268.68033,83.227545 C 272.40111,77.589693 277.65325,74 282.18131,74 C 286.85595,74 288.41991,75.948173 287.53442,80.668227 C 287.15367,82.69781 277.67945,104.19024 266.48061,128.42919 L 246.11907,172.5 L 263.23517,172.77437 C 272.64902,172.92527 280.68174,172.70027 281.08566,172.27437 C 281.48957,171.84847 291.57357,150.40486 303.49453,124.62192 C 326.54417,74.769625 328.21964,70.114848 326.02205,62.036253 C 324.42863,56.178627 318.81694,50.568808 312.96375,48.982304 C 303.44421,46.402037 287.11412,50.711279 279.75,57.746868 C 276.47074,60.879834 276.31339,60.266193 279.03039,54.940438 C 280.62011,51.824315 280.77378,50.85042 279.7384,50.453109 C 279.01109,50.174015 271.49198,50.070391 263.02927,50.222833 L 247.64251,50.5 L 219.32125,110.88569 C 203.74456,144.09782 191,171.67071 191,172.15877 C 191,172.65192 198.78972,172.92483 208.53412,172.77307 L 226.06824,172.5 L 245.96445,130 z "
     id="path2262" />
  <path
     style="fill:#ffffff"
     d="M 623.53491,112.01571 C 639.15298,78.749345 651.57561,51.175608 651.14073,50.740734 C 650.70586,50.305861 642.78647,50.073793 633.54209,50.225028 L 616.73412,50.5 L 588.36706,110.92913 C 572.76518,144.16516 560,171.73804 560,172.20221 C 560,172.66638 567.90614,172.92327 577.5692,172.77307 L 595.1384,172.5 L 623.53491,112.01571 z "
     id="path2260" />
  <path
     style="fill:#ffffff"
     d="M 694.77949,159.65846 C 698.20077,152.32061 701,146.02061 701,145.65846 C 701,145.29631 692.1125,144.99614 681.25,144.99143 L 661.5,144.98286 L 695.42454,111.74143 L 729.34909,78.5 L 735.67454,65.162913 C 739.15354,57.827515 742,51.415015 742,50.912913 C 742,49.823032 663.99214,49.678249 662.47392,50.765313 C 661.90958,51.169391 658.70043,57.35 655.34249,64.5 L 649.23714,77.5 L 667.29563,78 L 685.35412,78.5 L 652.0811,111 L 618.80808,143.5 L 611.90404,157.88729 C 608.10682,165.80031 605,172.43781 605,172.63729 C 605,172.83678 623.80077,173 646.77949,173 L 688.55898,173 L 694.77949,159.65846 z "
     id="path2258" />
  <path
     style="fill:#ffffff"
     d="M 845.98705,135 C 861.7333,101.40837 864.09456,96.961193 868.64286,92.330263 C 874.15498,86.718012 880.64277,84 888.5269,84 L 892.69079,84 L 900.8454,66.959582 C 905.33043,57.587352 909,49.65021 909,49.321487 C 909,48.155244 895.7505,50.102953 890.74447,52.005094 C 887.94817,53.067607 884.16172,55.3894 882.33014,57.164635 C 878.49861,60.878304 878.21803,60.453113 880.95715,55.083983 C 882.03359,52.973996 882.63359,50.966923 882.29049,50.623822 C 881.94739,50.28072 874.77704,50 866.35639,50 C 851.57692,50 850.99565,50.078008 849.59083,52.25 C 848.14032,54.492622 793,171.76084 793,172.60305 C 793,172.84675 800.96696,172.92327 810.70436,172.77307 L 828.40873,172.5 L 845.98705,135 z "
     id="path2256" />
  <path
     style="fill:#ffffff"
     d="M 446.37813,134.03593 C 462.73304,99.227556 464.62417,95.689846 469.12905,91.476062 C 475.27202,85.730029 479.35307,84 486.76468,84 L 492.59361,84 L 500.80897,66.75 C 505.32742,57.2625 509.01886,49.097428 509.01217,48.605395 C 508.99177,47.105506 496.24725,48.797043 491.39422,50.943765 C 488.88995,52.051524 485.02906,54.392957 482.81446,56.146949 L 478.78793,59.336025 L 480.89396,55.207851 C 482.05228,52.937355 483,50.825868 483,50.515659 C 483,50.20545 475.544,50.075023 466.43111,50.225821 L 449.86222,50.5 L 422.66853,108.5 C 407.712,140.4 394.92765,167.7375 394.25886,169.25 L 393.04288,172 L 410.79169,172 L 428.54049,172 L 446.37813,134.03593 z "
     id="path2254" />
  <path
     style="fill:#ffffff"
     d="M 663.34913,27.112354 C 665.90711,21.674149 668.00004,16.836649 668.00008,16.362354 C 668.00018,15.281764 633.98246,15.609985 632.91987,16.700827 C 632.49171,17.140372 630.11068,21.8875 627.6287,27.25 L 623.11599,37 L 640.90712,37 L 658.69825,37 L 663.34913,27.112354 z "
     id="path2250" />
  <path
     style="fill:#ffff00;fill-rule:evenodd;stroke:#000000;stroke-width:0;stroke-linecap:butt;stroke-linejoin:miter;stroke-opacity:1;opacity:1;stroke-miterlimit:4;stroke-dasharray:none"
     d="M 37.513055,275.09482 L 25.093192,301.70881 L 58.550781,289.79588 L 104.93517,275.34828 L 163.99288,259.88682 L 228.11993,246.19962 L 283.12218,236.56789 L 298.0767,234.54016 L 326.9719,230.73816 L 360.17602,226.93616 L 409.85547,221.61337 L 453.95865,218.57177 L 450.07407,214.31599 L 446.57604,208.84509 L 445.69529,207.22902 L 422.99224,208.75554 L 377.21978,211.9891 L 312.27083,217.08391 L 243.5379,226.86411 L 111.41284,254.34349 L 37.513055,275.09482 z "
     id="path2310"
     sodipodi:nodetypes="ccccccccccccccccccccc" />
  <path
     style="fill:#ffff00;fill-rule:evenodd;stroke:#000000;stroke-width:0;stroke-linecap:butt;stroke-linejoin:miter;stroke-opacity:1;stroke-miterlimit:4;stroke-dasharray:none"
     d="M 542.41849,201.58951 L 624.67741,202.17068 L 709.05103,202.33189 L 762.20477,202.73383 L 795.11363,203.27623 L 835.49157,205.2921 L 862.89251,208.29209 L 884.63813,211.00412 L 881.43005,218.25493 C 875.25173,218.36049 868.16161,217.75258 861.53292,217.5579 L 818.22182,214.92819 L 789.54841,213.7559 L 760.20966,212.45688 L 727.19563,211.72817 L 684.86671,211.72817 L 608.82674,211.4747 L 571.53547,212.71035 C 571.53301,212.71088 548.78087,211.87685 538.96501,212.86877 C 529.14915,213.86069 534.02262,211.34623 534.17291,211.18163 L 536.39866,209.02717 L 537.88778,207.27666 L 539.36105,205.51032 L 542.41849,201.58951 z "
     id="path3281"
     sodipodi:nodetypes="ccccccccccccccccczccccc" />
</svg>
